<svg id="Vrstva_1" data-name="Vrstva 1" xmlns="http://www.w3.org/2000/svg" viewBox="0 0 13.58 13.58"><defs><style>.cls-1{fill:#999;}.cls-2{fill:#58659a;}.cls-3{fill:#828bb3;}.cls-4{fill:#333;}</style></defs><title>Tecka fialova</title><g id="_Skupina_" data-name="&lt;Skupina&gt;"><path class="cls-1" d="M15.29,20.27A6.24,6.24,0,0,1,9,14.06a8.59,8.59,0,0,1,1.55-4.34,7.85,7.85,0,0,0-2.88,5.66A6.24,6.24,0,0,0,14,21.58a8.38,8.38,0,0,0,5.79-3.1A9.37,9.37,0,0,1,15.29,20.27Z" transform="translate(-7.69 -8)"/><circle class="cls-2" cx="7.21" cy="6.36" r="5.96"/><path class="cls-3" d="M14.91,8.41A6,6,0,0,0,10,11a6,6,0,0,1,8.27,8.27,6,6,0,0,0-3.32-10.9Z" transform="translate(-7.69 -8)"/><path class="cls-4" d="M14.91,20.73a6.37,6.37,0,1,1,6.36-6.37A6.37,6.37,0,0,1,14.91,20.73Zm0-11.91a5.55,5.55,0,1,0,5.54,5.54A5.55,5.55,0,0,0,14.91,8.82Z" transform="translate(-7.69 -8)"/></g></svg>