<svg id="Vrstva_1" data-name="Vrstva 1" xmlns="http://www.w3.org/2000/svg" viewBox="0 0 97.99 91.14"><defs><style>.cls-1{fill:#9ae0e3;}.cls-2{fill:#d9f3f4;}.cls-3{fill:#999;}.cls-4{fill:#58659a;}.cls-5{fill:#828bb3;}.cls-6{fill:#d1d4fd;}.cls-7{fill:#e6e6e6;}.cls-8{fill:#333;}</style></defs><title>Investovani</title><path class="cls-1" d="M98.28,38.13v56a2.18,2.18,0,0,1-2.16,2.19h-9.6a2.19,2.19,0,0,1-2.17-2.19v-56a2.18,2.18,0,0,1,2.17-2.19h9.6A2.17,2.17,0,0,1,98.28,38.13Z" transform="translate(-0.88 -5.77)"/><path class="cls-2" d="M96.12,35.94h-9.6a2.15,2.15,0,0,0-2,1.53h7.63a2.18,2.18,0,0,1,2.17,2.18v56c0,.23,1.34.45,1.27.66h.57a2.18,2.18,0,0,0,2.16-2.19v-56A2.17,2.17,0,0,0,96.12,35.94Z" transform="translate(-0.88 -5.77)"/><path class="cls-3" d="M77.68,17.34l-2.14-2.15L94.7,8l-4,22.34L85.41,25,68,42.46l-3.54,3.71c-.83.86-3.87.55-4.73-.3l-4.06-3.41-16-16L11.71,54.41c-.86.85-3.08,1.7-3.94.84L3.13,50.64c-.83-.85,0-3.07.84-3.93L33.4,17.29s0-.07.07-.1l4.63-4.63a2.22,2.22,0,0,1,3.12,0l4.63,4.63s0,.08,0,.1l15.93,15.9" transform="translate(-0.88 -5.77)"/><path class="cls-4" d="M79.36,15.66l-3.73-3.73L96.38,6.37,90.82,27.12l-3.73-3.76L69.66,40.79,65,45.4a2.15,2.15,0,0,1-3.07,0l-4.64-4.61-16-16L12.54,53.58a2.19,2.19,0,0,1-3.09,0L4.81,49a2.24,2.24,0,0,1,0-3.1L35.07,15.61s0-.07.07-.09l4.64-4.64a2.21,2.21,0,0,1,3.11,0l4.64,4.64s0,.07,0,.09L63.5,31.52" transform="translate(-0.88 -5.77)"/><path class="cls-5" d="M63.24,31.66l-15.66-16s0-.07,0-.09l-4.64-4.64a2.21,2.21,0,0,0-3.11,0l-4.64,4.64s0,.07-.07.09L4.81,45.87a1.92,1.92,0,0,0-.54,2c.08-.13.58.18.69.06L35.38,18.17a.36.36,0,0,1,.07-.1l4.14-3.94a2.18,2.18,0,0,1,1.55-.64,1.7,1.7,0,0,1,1.12.19l5.05,4.07a.6.6,0,0,0,.08.08L63.08,31.91" transform="translate(-0.88 -5.77)"/><polygon class="cls-5" points="94.41 4.25 95.5 0.59 74.74 6.16 76.71 8.12 94.41 4.25"/><path class="cls-6" d="M71.42,54.93v39.2a2.18,2.18,0,0,1-2.19,2.19H59.65a2.18,2.18,0,0,1-2.18-2.19V54.93a2.17,2.17,0,0,1,2.18-2.16h9.58A2.17,2.17,0,0,1,71.42,54.93Z" transform="translate(-0.88 -5.77)"/><path class="cls-7" d="M69.23,52.77H59.65a2.17,2.17,0,0,0-2,1.44h8.33a2.18,2.18,0,0,1,2.18,2.17v39.2c0,.26.83.51.75.74h.36a2.18,2.18,0,0,0,2.19-2.19V54.93A2.17,2.17,0,0,0,69.23,52.77Z" transform="translate(-0.88 -5.77)"/><path class="cls-4" d="M44.51,52.44V94.13a2.18,2.18,0,0,1-2.19,2.19H32.74a2.18,2.18,0,0,1-2.16-2.19V52.44a2.17,2.17,0,0,1,2.16-2.17h9.58A2.18,2.18,0,0,1,44.51,52.44Z" transform="translate(-0.88 -5.77)"/><path class="cls-5" d="M42.32,50.27H32.74A2.13,2.13,0,0,0,30.68,52h8.79a2.18,2.18,0,0,1,2.19,2.16V95.81a2.19,2.19,0,0,1-.1.51h.76a2.18,2.18,0,0,0,2.19-2.19V52.44A2.18,2.18,0,0,0,42.32,50.27Z" transform="translate(-0.88 -5.77)"/><path class="cls-3" d="M3.67,94.64V63c0-.18.85-2,.89-2.17H4.29a12.19,12.19,0,0,0-2.94,3.81,5.33,5.33,0,0,0-.47,2.22V94.74c0,1.18,1.41,2.12,2.62,2.12l2.36,0A2.24,2.24,0,0,1,3.67,94.64Z" transform="translate(-0.88 -5.77)"/><path class="cls-3" d="M30.55,94.64V63c.06-10.9.85-12.58.89-12.75h-.27a12,12,0,0,0-2.94,3.81,5.35,5.35,0,0,0-.47,2.23V94.74c0,1.18,1.41,2.12,2.62,2.12l2.36,0A2.24,2.24,0,0,1,30.55,94.64Z" transform="translate(-0.88 -5.77)"/><path class="cls-3" d="M84.41,94.64V63c-1.09-25.25.85-26.92.89-27.08H85a12.34,12.34,0,0,0-2.94,3.81A5.45,5.45,0,0,0,81.63,42V94.74c0,1.18,1.4,2.12,2.62,2.12l2.35,0A2.25,2.25,0,0,1,84.41,94.64Z" transform="translate(-0.88 -5.77)"/><path class="cls-3" d="M57.53,94.64V63c.06-10.9.85-10.09.89-10.25h-.27a12,12,0,0,0-2.94,3.81,5.3,5.3,0,0,0-.47,2.22V94.74c0,1.18,1.41,2.12,2.62,2.12l2.35,0A2.24,2.24,0,0,1,57.53,94.64Z" transform="translate(-0.88 -5.77)"/><path class="cls-6" d="M17.6,63V94.13a2.18,2.18,0,0,1-2.16,2.19H5.86a2.18,2.18,0,0,1-2.19-2.19V63a2.18,2.18,0,0,1,2.19-2.16h9.58A2.17,2.17,0,0,1,17.6,63Z" transform="translate(-0.88 -5.77)"/><path class="cls-7" d="M15.44,60.85H5.86a2.17,2.17,0,0,0-2,1.38h8.8a2.17,2.17,0,0,1,2.16,2.17V95.5c0,.29.73.57.63.82h0a2.18,2.18,0,0,0,2.16-2.19V63A2.17,2.17,0,0,0,15.44,60.85Z" transform="translate(-0.88 -5.77)"/><path class="cls-8" d="M15.44,96.91H5.86a2.77,2.77,0,0,1-2.78-2.78V63a2.76,2.76,0,0,1,2.78-2.75h9.58A2.75,2.75,0,0,1,18.19,63V94.13A2.76,2.76,0,0,1,15.44,96.91ZM5.86,61.44A1.59,1.59,0,0,0,4.26,63V94.13a1.6,1.6,0,0,0,1.6,1.59h9.58A1.58,1.58,0,0,0,17,94.13V63a1.58,1.58,0,0,0-1.57-1.57Z" transform="translate(-0.88 -5.77)"/><path class="cls-8" d="M96.12,96.91H86.51a2.76,2.76,0,0,1-2.75-2.78v-56a2.77,2.77,0,0,1,2.75-2.79h9.61a2.78,2.78,0,0,1,2.76,2.79v56A2.77,2.77,0,0,1,96.12,96.91ZM86.51,36.53A1.58,1.58,0,0,0,85,38.13v56a1.58,1.58,0,0,0,1.56,1.59h9.61a1.58,1.58,0,0,0,1.57-1.59v-56a1.59,1.59,0,0,0-1.57-1.6Z" transform="translate(-0.88 -5.77)"/><path class="cls-8" d="M69.23,96.91H59.65a2.78,2.78,0,0,1-2.78-2.78V54.93a2.78,2.78,0,0,1,2.78-2.76h9.58A2.77,2.77,0,0,1,72,54.93v39.2A2.77,2.77,0,0,1,69.23,96.91ZM59.65,53.36a1.58,1.58,0,0,0-1.59,1.57v39.2a1.59,1.59,0,0,0,1.59,1.59h9.58a1.6,1.6,0,0,0,1.6-1.59V54.93a1.59,1.59,0,0,0-1.6-1.57Z" transform="translate(-0.88 -5.77)"/><path class="cls-8" d="M42.32,96.91H32.74A2.76,2.76,0,0,1,30,94.13V52.44a2.76,2.76,0,0,1,2.75-2.76h9.58a2.77,2.77,0,0,1,2.78,2.76V94.13A2.77,2.77,0,0,1,42.32,96.91Zm-9.58-46a1.57,1.57,0,0,0-1.57,1.57V94.13a1.58,1.58,0,0,0,1.57,1.59h9.58a1.6,1.6,0,0,0,1.6-1.59V52.44a1.59,1.59,0,0,0-1.6-1.57Z" transform="translate(-0.88 -5.77)"/><path class="cls-8" d="M11,54.81A2.76,2.76,0,0,1,9,54L4.39,49.39a2.83,2.83,0,0,1,0-3.93l35-35a2.89,2.89,0,0,1,4,0L48,15.1a.64.64,0,0,1,.11.16L63.5,30.68l15-15-3.31-3.31a.61.61,0,0,1-.16-.57.63.63,0,0,1,.42-.43L96.23,5.79A.6.6,0,0,1,96.8,6a.57.57,0,0,1,.15.57L91.39,27.27a.56.56,0,0,1-.42.42.59.59,0,0,1-.57-.15L87.08,24.2,65.44,45.82a2.64,2.64,0,0,1-1.92.81h0a2.73,2.73,0,0,1-2-.82L41.32,25.63,13,54A2.79,2.79,0,0,1,11,54.81Zm30.33-44a1.63,1.63,0,0,0-1.12.46l-35,35a1.63,1.63,0,0,0,0,2.26l4.63,4.61a1.59,1.59,0,0,0,2.25,0L40.9,24.37a.63.63,0,0,1,.85,0L62.38,45a1.58,1.58,0,0,0,1.12.47h0A1.54,1.54,0,0,0,64.6,45l22.07-22a.59.59,0,0,1,.42-.17h0a.61.61,0,0,1,.42.17l3,3,5-18.76-18.77,5,3,3a.6.6,0,0,1,0,.84L63.92,31.94a.6.6,0,0,1-.84,0L47.16,16a1.11,1.11,0,0,1-.12-.16L42.47,11.3A1.61,1.61,0,0,0,41.32,10.84Z" transform="translate(-0.88 -5.77)"/></svg>