<svg id="Vrstva_1" data-name="Vrstva 1" xmlns="http://www.w3.org/2000/svg" viewBox="0 0 98.47 94.21"><defs><style>.cls-1{fill:#58659a;}.cls-2{fill:#828bb3;}.cls-3{fill:#fff;}.cls-4{fill:#333;}.cls-5{fill:#999;}.cls-6{fill:#e6e6e6;}.cls-7{fill:#d1d4fd;}.cls-8{fill:#9ae0e3;}.cls-9{fill:#394d8e;}</style></defs><title>Bez názvu-2</title><polygon class="cls-1" points="87.71 36.51 78.29 36.51 17.06 36.49 7.66 36.49 17.06 28.05 23.49 22.28 47.69 0.57 87.71 36.51"/><polygon class="cls-2" points="47.69 0.57 45.84 2.22 84.03 36.51 87.71 36.51 47.69 0.57"/><polygon class="cls-3" points="78.29 36.51 17.06 36.49 17.06 83.54 78.29 83.54 78.29 36.51"/><path class="cls-4" d="M79,86.43H17.75a.56.56,0,0,1-.57-.57v-47a.55.55,0,0,1,.57-.57h0l61.23,0a.57.57,0,0,1,.57.57v47A.57.57,0,0,1,79,86.43ZM18.32,85.29H78.41V39.41l-60.09,0Z" transform="translate(-0.69 -2.33)"/><rect class="cls-5" x="17.06" y="36.98" width="61.23" height="3.32"/><rect class="cls-6" x="61.71" y="49.1" width="10.22" height="20.23"/><polygon class="cls-7" points="66.63 49.1 61.71 49.1 61.71 55.94 66.63 49.1"/><polygon class="cls-7" points="71.93 49.26 61.71 63.48 61.71 67.68 71.93 53.46 71.93 49.26"/><polygon class="cls-7" points="65.53 69.33 71.93 69.33 71.93 60.42 65.53 69.33"/><rect class="cls-8" x="40.32" y="49.1" width="14.76" height="34.44"/><rect class="cls-6" x="23.49" y="49.1" width="10.22" height="20.23"/><polygon class="cls-7" points="28.4 49.1 23.49 49.1 23.49 55.94 28.4 49.1"/><polygon class="cls-7" points="33.71 49.26 23.49 63.48 23.49 67.68 33.71 53.46 33.71 49.26"/><polygon class="cls-7" points="27.3 69.33 33.71 69.33 33.71 60.42 27.3 69.33"/><path class="cls-4" d="M24.18,25.18a.59.59,0,0,1-.43-.19.57.57,0,0,1,.05-.81L48,2.47a.57.57,0,0,1,.81,0,.56.56,0,0,1,0,.8L24.56,25A.57.57,0,0,1,24.18,25.18Z" transform="translate(-0.69 -2.33)"/><path class="cls-4" d="M41,86.43H17.75a.56.56,0,0,1-.57-.57V39.39H8.35A.56.56,0,0,1,7.82,39,.56.56,0,0,1,8,38.39L17.36,30a.57.57,0,0,1,.77.85L9.84,38.25h7.91a.57.57,0,0,1,.57.57V85.29H41a.58.58,0,0,1,.57.57A.57.57,0,0,1,41,86.43Z" transform="translate(-0.69 -2.33)"/><path class="cls-4" d="M79,86.43H55.76a.57.57,0,0,1-.57-.57.58.58,0,0,1,.57-.57H78.41V38.84a.56.56,0,0,1,.57-.57h7.93L48,3.32a.57.57,0,0,1,0-.8.56.56,0,0,1,.8,0l40,35.94a.59.59,0,0,1,.15.63.58.58,0,0,1-.53.37H79.55V85.86A.57.57,0,0,1,79,86.43Z" transform="translate(-0.69 -2.33)"/><polygon class="cls-5" points="19.33 12.93 17.06 12.93 17.06 28.05 19.33 25.13 19.33 12.93"/><path class="cls-4" d="M17.75,31a.69.69,0,0,1-.24-.05.57.57,0,0,1-.33-.52V15.26a.56.56,0,0,1,.57-.57h6.43a.57.57,0,0,1,.57.57v9.35a.57.57,0,0,1-.19.42L18.13,30.8A.57.57,0,0,1,17.75,31Zm.57-15.12V29.1l5.29-4.75V15.83Z" transform="translate(-0.69 -2.33)"/><path class="cls-4" d="M55.76,86.43H41a.56.56,0,0,1-.57-.57V51.43a.56.56,0,0,1,.57-.57H55.76a.56.56,0,0,1,.57.57V85.86A.56.56,0,0,1,55.76,86.43ZM41.58,85.29H55.19V52H41.58Z" transform="translate(-0.69 -2.33)"/><path class="cls-4" d="M72.61,72.23H62.4a.57.57,0,0,1-.57-.57V51.43a.56.56,0,0,1,.57-.57H72.61a.56.56,0,0,1,.57.57V71.66A.57.57,0,0,1,72.61,72.23ZM63,71.09H72V52H63Z" transform="translate(-0.69 -2.33)"/><path class="cls-4" d="M34.39,72.23H24.18a.57.57,0,0,1-.57-.57V51.43a.56.56,0,0,1,.57-.57H34.39a.56.56,0,0,1,.57.57V71.66A.57.57,0,0,1,34.39,72.23Zm-9.64-1.14h9.07V52H24.75Z" transform="translate(-0.69 -2.33)"/><path class="cls-7" d="M84.75,75.15c9-1.93,21.62,1.58,7.5,11.06-27.94,19-76.83,4.57-76.83,4.57V65.48c14.16-6.06,14.12-3.78,20.39-2.32,5,1.16,12-.73,17.51,0a3.18,3.18,0,0,1,2.24,4.88c-3.54,5.61-12,6.57-20.89,6.57,22.94,12.32,41,4.63,45.45,2.28A20.33,20.33,0,0,1,84.75,75.15Z" transform="translate(-0.69 -2.33)"/><polygon class="cls-1" points="14.73 88.45 14.73 92.67 0.57 92.67 0.57 60.83 14.73 60.83 14.73 63.16 14.73 88.45"/><path class="cls-9" d="M6.74,89.27,5.13,63.88a.73.73,0,0,1,.73-.72H1.26V95h9C9.9,95,7.19,92.23,6.74,89.27Z" transform="translate(-0.69 -2.33)"/><path class="cls-4" d="M15.42,95.56H1.26A.56.56,0,0,1,.69,95V63.16a.56.56,0,0,1,.57-.57H15.42a.57.57,0,0,1,.57.57v2.32a.57.57,0,0,1-.57.57.56.56,0,0,1-.57-.57V63.73h-13V94.42h13V90.78a.56.56,0,0,1,.57-.57.57.57,0,0,1,.57.57V95A.57.57,0,0,1,15.42,95.56Z" transform="translate(-0.69 -2.33)"/><path class="cls-4" d="M53.47,96.54a153,153,0,0,1-38.21-5.22.57.57,0,0,1-.41-.54V65.48a.58.58,0,0,1,.34-.52c11.82-5.06,14-4.38,17.9-3.16.82.26,1.74.55,2.85.8,2.6.6,5.71.36,9,.11a40.48,40.48,0,0,1,8.44-.07A3.75,3.75,0,0,1,56,68.39C52.59,73.86,44.72,75,37,75.2c21.57,10.62,38.19,3.68,42.87,1.23a20.23,20.23,0,0,1,4.77-1.83c5.75-1.24,12.86-.33,14.27,3,1.07,2.5-1.06,5.55-6.32,9.09C81.44,94.26,66.92,96.54,53.47,96.54ZM16,90.34c4.77,1.32,49.89,13.12,75.94-4.6,4.61-3.09,6.71-5.83,5.92-7.69-1-2.46-7.24-3.58-13-2.34a19.06,19.06,0,0,0-4.49,1.73c-5,2.59-22.93,10.09-46-2.29a.57.57,0,0,1-.29-.64.59.59,0,0,1,.56-.43c8.12,0,16.91-.75,20.4-6.3a2.6,2.6,0,0,0-1.83-4,39.61,39.61,0,0,0-8.2.08c-3.24.24-6.59.5-9.36-.14-1.15-.26-2.09-.56-2.93-.82-3.74-1.17-5.64-1.76-16.76,3Z" transform="translate(-0.69 -2.33)"/></svg>