<svg id="Vrstva_1" data-name="Vrstva 1" xmlns="http://www.w3.org/2000/svg" viewBox="0 0 89.49 99.21"><defs><style>.cls-1{fill:#58659a;}.cls-2{fill:#828bb3;}.cls-3{fill:#fff;}.cls-4{fill:#333;}.cls-5{fill:#999;}.cls-6{fill:#e6e6e6;}.cls-7{fill:#d1d4fd;}.cls-8{fill:#9ae0e3;}.cls-9{opacity:0.46;}</style></defs><title>Nemovitosti</title><polygon class="cls-1" points="84.19 38.13 74.35 38.13 10.41 38.11 0.59 38.11 10.41 29.29 17.12 23.27 42.39 0.6 84.19 38.13"/><polygon class="cls-2" points="42.39 0.6 40.47 2.32 80.34 38.13 84.19 38.13 42.39 0.6"/><polygon class="cls-3" points="74.35 38.13 10.41 38.11 10.41 87.24 74.35 87.24 74.35 38.13"/><path class="cls-4" d="M79.56,88.13H15.61a.58.58,0,0,1-.59-.59V38.41a.63.63,0,0,1,.17-.43.59.59,0,0,1,.42-.17h0l64,0a.6.6,0,0,1,.59.6V87.54A.59.59,0,0,1,79.56,88.13ZM16.21,86.94H79V39L16.21,39Z" transform="translate(-5.21 -0.3)"/><rect class="cls-5" x="10.41" y="38.62" width="63.94" height="3.47"/><rect class="cls-6" x="57.04" y="51.28" width="10.67" height="21.12"/><polygon class="cls-7" points="62.17 51.27 57.04 51.27 57.04 58.42 62.17 51.27"/><polygon class="cls-7" points="67.7 51.44 57.04 66.29 57.04 70.67 67.7 55.82 67.7 51.44"/><polygon class="cls-7" points="61.02 72.4 67.7 72.4 67.7 63.09 61.02 72.4"/><rect class="cls-8" x="34.7" y="51.28" width="15.41" height="35.96"/><rect class="cls-6" x="17.12" y="51.28" width="10.67" height="21.12"/><polygon class="cls-7" points="22.25 51.27 17.12 51.27 17.12 58.42 22.25 51.27"/><polygon class="cls-7" points="27.79 51.44 17.12 66.29 17.12 70.67 27.79 55.82 27.79 51.44"/><polygon class="cls-7" points="21.11 72.4 27.79 72.4 27.79 63.09 21.11 72.4"/><path class="cls-4" d="M22.33,24.16a.58.58,0,0,1-.44-.19.6.6,0,0,1,0-.84L47.2.45a.6.6,0,0,1,.79.89L22.73,24A.62.62,0,0,1,22.33,24.16Z" transform="translate(-5.21 -0.3)"/><path class="cls-4" d="M39.9,88.13H15.61a.58.58,0,0,1-.59-.59V39H5.8a.57.57,0,0,1-.55-.38A.6.6,0,0,1,5.4,38l9.82-8.81a.59.59,0,0,1,.84.05A.6.6,0,0,1,16,30L7.35,37.81h8.26a.6.6,0,0,1,.6.6V86.94H39.9a.6.6,0,0,1,.6.6A.59.59,0,0,1,39.9,88.13Z" transform="translate(-5.21 -0.3)"/><path class="cls-4" d="M79.56,88.13H55.31a.58.58,0,0,1-.59-.59.59.59,0,0,1,.59-.6H79V38.43a.6.6,0,0,1,.6-.6h8.28L47.2,1.34A.59.59,0,0,1,47.15.5a.6.6,0,0,1,.84,0L89.79,38a.59.59,0,0,1,.16.65.61.61,0,0,1-.56.39H80.15V87.54A.59.59,0,0,1,79.56,88.13Z" transform="translate(-5.21 -0.3)"/><polygon class="cls-5" points="12.78 13.51 10.41 13.51 10.41 29.29 12.78 26.24 12.78 13.51"/><path class="cls-4" d="M15.61,30.19a.69.69,0,0,1-.24-.05.61.61,0,0,1-.35-.55V13.8a.59.59,0,0,1,.59-.59h6.72a.59.59,0,0,1,.59.59v9.77a.6.6,0,0,1-.19.44L16,30A.59.59,0,0,1,15.61,30.19Zm.6-15.79V28.26l5.52-5V14.4Z" transform="translate(-5.21 -0.3)"/><path class="cls-4" d="M55.31,88.13H39.9a.58.58,0,0,1-.59-.59v-36a.59.59,0,0,1,.59-.6H55.31a.6.6,0,0,1,.6.6v36A.59.59,0,0,1,55.31,88.13ZM40.5,86.94H54.72V52.17H40.5Z" transform="translate(-5.21 -0.3)"/><path class="cls-4" d="M72.91,73.3H62.24a.59.59,0,0,1-.59-.6V51.58a.59.59,0,0,1,.59-.6H72.91a.6.6,0,0,1,.6.6V72.7A.6.6,0,0,1,72.91,73.3ZM62.84,72.1h9.48V52.17H62.84Z" transform="translate(-5.21 -0.3)"/><path class="cls-4" d="M33,73.3H22.33a.6.6,0,0,1-.6-.6V51.58a.6.6,0,0,1,.6-.6H33a.59.59,0,0,1,.59.6V72.7A.59.59,0,0,1,33,73.3ZM22.92,72.1H32.4V52.17H22.92Z" transform="translate(-5.21 -0.3)"/><g id="_Skupina_" data-name="&lt;Skupina&gt;"><g class="cls-9"><path class="cls-4" d="M40.58,84.41v0l-11.8-18,2.87,8.45,5.51,12.92v0l44.57,11.6c1.31.35,2.11-.46,3.46-1.6l1.75-1.45L85.15,96Z" transform="translate(-5.21 -0.3)"/></g><path class="cls-1" d="M40.05,67.06A2.38,2.38,0,1,0,41.73,70,2.39,2.39,0,0,0,40.05,67.06ZM29.2,66.89l18.45-9.73v0l44.6,11.61a2.46,2.46,0,0,1,1.76,3L88.16,94.25a2.47,2.47,0,0,1-3,1.76L40.58,84.41v0Z" transform="translate(-5.21 -0.3)"/><path class="cls-2" d="M92.26,68.75,47.66,57.14v0l-3,1.6L88.48,70.17a2.46,2.46,0,0,1,1.76,3L84.38,95.67a.45.45,0,0,1-.06.12l.83.22a2.47,2.47,0,0,0,3-1.76L94,71.73A2.46,2.46,0,0,0,92.26,68.75Z" transform="translate(-5.21 -0.3)"/><path class="cls-4" d="M85.78,96.69a3,3,0,0,1-.78-.11L40.55,85a.6.6,0,0,1-.48-.26L28.7,67.21a.56.56,0,0,1-.08-.47.6.6,0,0,1,.3-.38l18.37-9.68.06,0a.68.68,0,0,1,.46-.08l44.6,11.61a3,3,0,0,1,2.19,3.71L88.74,94.4a3.07,3.07,0,0,1-3,2.29ZM40.92,83.89,85.3,95.43a1.83,1.83,0,0,0,1.41-.19,1.81,1.81,0,0,0,.87-1.14l5.87-22.52a1.87,1.87,0,0,0-1.35-2.26L47.76,57.78,30.05,67.11Z" transform="translate(-5.21 -0.3)"/><path class="cls-4" d="M39.43,72.34a3.39,3.39,0,0,1-.77-.1,3,3,0,1,1,.77.1Zm0-4.77a1.79,1.79,0,1,0,1.73,2.25h0a1.8,1.8,0,0,0-1.27-2.19A1.82,1.82,0,0,0,39.43,67.57Z" transform="translate(-5.21 -0.3)"/><path class="cls-4" d="M39.43,72.34a3.39,3.39,0,0,1-.77-.1,3,3,0,0,1,1.54-5.76h0a3,3,0,0,1-.77,5.86Zm0-4.77a1.79,1.79,0,1,0,1.73,2.25,1.8,1.8,0,0,0-1.27-2.19h0A1.82,1.82,0,0,0,39.43,67.57Z" transform="translate(-5.21 -0.3)"/></g><path class="cls-4" d="M39.78,70.14c-.11,0-12-2.47-20-4.75A14.15,14.15,0,0,1,9.5,52.14a22.4,22.4,0,0,1,5-14.1l1,.73a21.22,21.22,0,0,0-4.8,13.35,13,13,0,0,0,9.42,12.12C28.11,66.52,39.91,69,40,69Z" transform="translate(-5.21 -0.3)"/><path class="cls-3" d="M57.17,66a5,5,0,0,1,.15,3.5L57.2,70l-1.86-.48.15-.58c.43-1.68,0-2.69-1.36-3s-2.23.31-2.66,2a3.46,3.46,0,0,0,.12,2.3,12.14,12.14,0,0,0,1.54,2.45c.56.8,1,1.46,1.3,2a5.88,5.88,0,0,1,.65,1.84A5.12,5.12,0,0,1,55,78.66a4.91,4.91,0,0,1-1.85,3,3.8,3.8,0,0,1-3.27.4,3.78,3.78,0,0,1-2.65-1.94A5,5,0,0,1,47,76.6l.26-1,1.83.48-.28,1.11a3,3,0,0,0,0,2A2.22,2.22,0,0,0,52,80a3,3,0,0,0,1-1.73A3.34,3.34,0,0,0,52.85,76a12.83,12.83,0,0,0-1.52-2.47c-.54-.75-1-1.39-1.28-1.93a5.61,5.61,0,0,1-.67-1.87,5.16,5.16,0,0,1,.12-2.26,5,5,0,0,1,1.82-3,3.73,3.73,0,0,1,3.22-.4A3.78,3.78,0,0,1,57.17,66Z" transform="translate(-5.21 -0.3)"/><path class="cls-4" d="M51.17,82.51a5.6,5.6,0,0,1-1.41-.19,4.06,4.06,0,0,1-2.84-2.1,5.28,5.28,0,0,1-.17-3.7l.33-1.29,2.42.63-.37,1.39a2.79,2.79,0,0,0,0,1.8,1.58,1.58,0,0,0,1.18.89,1.6,1.6,0,0,0,1.46-.2,2.76,2.76,0,0,0,.89-1.56,3.09,3.09,0,0,0-.1-2.07,13.13,13.13,0,0,0-1.49-2.41,23.37,23.37,0,0,1-1.3-2,6.25,6.25,0,0,1-.71-2,5.65,5.65,0,0,1,.13-2.4,5.36,5.36,0,0,1,1.94-3.16,4.7,4.7,0,0,1,6.29,1.65,5.29,5.29,0,0,1,.17,3.7l-.2.77L55,69.7l.23-.87a2.79,2.79,0,0,0,0-1.82,1.92,1.92,0,0,0-2.57-.67,2.78,2.78,0,0,0-.88,1.57A3.21,3.21,0,0,0,51.86,70a12.09,12.09,0,0,0,1.51,2.39c.57.81,1,1.48,1.32,2a6.21,6.21,0,0,1,.68,1.92,5.45,5.45,0,0,1-.12,2.39,5.26,5.26,0,0,1-2,3.14A3.62,3.62,0,0,1,51.17,82.51ZM47.51,76l-.19.72A4.76,4.76,0,0,0,47.46,80a3.44,3.44,0,0,0,2.45,1.78,3.51,3.51,0,0,0,3-.35,4.68,4.68,0,0,0,1.73-2.8,4.89,4.89,0,0,0,.12-2.13,5.76,5.76,0,0,0-.62-1.74c-.3-.51-.73-1.17-1.28-2a12.39,12.39,0,0,1-1.57-2.51,3.73,3.73,0,0,1-.14-2.5,3.31,3.31,0,0,1,1.1-1.9,2.17,2.17,0,0,1,1.92-.28,2.2,2.2,0,0,1,1.55,1.19,3.36,3.36,0,0,1,0,2.21l-.07.3,1.28.33.05-.19a4.71,4.71,0,0,0-.13-3.29h0a3.41,3.41,0,0,0-2.43-1.77,3.4,3.4,0,0,0-3,.35,4.84,4.84,0,0,0-1.71,2.82,5.08,5.08,0,0,0-.11,2.14,5.31,5.31,0,0,0,.63,1.77c.32.54.74,1.18,1.27,1.91a12.85,12.85,0,0,1,1.55,2.52,3.67,3.67,0,0,1,.14,2.46,3.35,3.35,0,0,1-1.11,1.89,2.53,2.53,0,0,1-3.55-.93,3.36,3.36,0,0,1,0-2.19l.21-.82Z" transform="translate(-5.21 -0.3)"/><path class="cls-3" d="M60.77,67a4.57,4.57,0,0,1,6,1.57A5,5,0,0,1,67,72l-2.37,9.11a5,5,0,0,1-1.88,3,3.9,3.9,0,0,1-3.33.4,3.85,3.85,0,0,1-2.68-2A4.89,4.89,0,0,1,56.53,79l2.37-9.11A5,5,0,0,1,60.77,67ZM58.48,81.67a1.94,1.94,0,0,0,1.39,1.06c1.39.37,2.31-.3,2.75-2L65,71.42a3.06,3.06,0,0,0,0-2,1.89,1.89,0,0,0-1.39-1.08,2,2,0,0,0-1.74.26,3,3,0,0,0-1,1.74l-2.42,9.31A3,3,0,0,0,58.48,81.67Z" transform="translate(-5.21 -0.3)"/><path class="cls-4" d="M60.75,85a5.61,5.61,0,0,1-1.42-.19,4.19,4.19,0,0,1-2.88-2.12A5.28,5.28,0,0,1,56.24,79l2.37-9.11a5.31,5.31,0,0,1,2-3.15,4.16,4.16,0,0,1,3.56-.45,4.22,4.22,0,0,1,2.9,2.13,5.28,5.28,0,0,1,.21,3.72l-2.38,9.11a5.22,5.22,0,0,1-2,3.15A3.75,3.75,0,0,1,60.75,85Zm2-18.34a3.06,3.06,0,0,0-1.8.54A4.73,4.73,0,0,0,59.19,70l-2.37,9.11a4.62,4.62,0,0,0,.16,3.3,3.56,3.56,0,0,0,2.5,1.81,3.63,3.63,0,0,0,3.08-.35,4.69,4.69,0,0,0,1.76-2.81L66.69,72a4.71,4.71,0,0,0-.16-3.31A3.66,3.66,0,0,0,64,66.84,5,5,0,0,0,62.73,66.66ZM60.56,83.13a2.76,2.76,0,0,1-.77-.11,2.22,2.22,0,0,1-1.58-1.22h0a3.33,3.33,0,0,1-.06-2.23l2.43-9.31a3.3,3.3,0,0,1,1.12-1.9,2.54,2.54,0,0,1,3.59.94,3.39,3.39,0,0,1,0,2.2l-2.42,9.31C62.43,82.63,61.47,83.13,60.56,83.13ZM63,68.55a1.43,1.43,0,0,0-.9.29,2.78,2.78,0,0,0-.91,1.57l-2.42,9.31a2.74,2.74,0,0,0,0,1.83h0a1.65,1.65,0,0,0,1.19.9c.78.2,1.86.23,2.39-1.79l2.42-9.31a2.79,2.79,0,0,0,0-1.82,1.61,1.61,0,0,0-1.2-.9A2.07,2.07,0,0,0,63,68.55Z" transform="translate(-5.21 -0.3)"/><path class="cls-3" d="M70,68.27l2,.51L67.79,84.61l5,1.31-.46,1.79-7-1.83Z" transform="translate(-5.21 -0.3)"/><path class="cls-4" d="M72.57,88.07,65,86.1l.07-.29,4.67-17.9,2.53.66L68.15,84.4l5,1.31Zm-6.85-2.4,6.42,1.67.32-1.21-5-1.31L71.55,69l-1.39-.36Z" transform="translate(-5.21 -0.3)"/><path class="cls-3" d="M85.27,73.48A5,5,0,0,1,85.42,77L83.1,85.85a4.81,4.81,0,0,1-1.83,3,3.85,3.85,0,0,1-3.3.37l-4.13-1.08,4.59-17.61,4.13,1.07A3.91,3.91,0,0,1,85.27,73.48Zm-4.12,12,2.36-9.06c.43-1.66-.06-2.68-1.47-3.05l-2.11-.55-3.66,14,2.14.55C79.8,87.74,80.71,87.09,81.15,85.43Z" transform="translate(-5.21 -0.3)"/><path class="cls-4" d="M79.36,89.66a6.08,6.08,0,0,1-1.46-.2l-4.42-1.15,4.74-18.2,4.41,1.15a4.18,4.18,0,0,1,2.9,2.09,5.26,5.26,0,0,1,.18,3.7l-2.32,8.88a5.18,5.18,0,0,1-2,3.12A3.54,3.54,0,0,1,79.36,89.66Zm-5.15-1.78,3.83,1a3.66,3.66,0,0,0,3.07-.32,4.68,4.68,0,0,0,1.71-2.78l2.31-8.88A4.7,4.7,0,0,0,85,73.61a3.59,3.59,0,0,0-2.52-1.77l-3.84-1Zm4.9-.11a2.76,2.76,0,0,1-.77-.11L75.91,87l3.8-14.62,2.4.63c1.1.28,2.28,1.1,1.69,3.4L81.44,85.5C81,87.28,80,87.77,79.11,87.77ZM76.63,86.6l1.85.49c.78.2,1.86.24,2.38-1.74l2.36-9.06c.39-1.5,0-2.35-1.26-2.68l-1.82-.47Z" transform="translate(-5.21 -0.3)"/></svg>