<svg id="Vrstva_1" data-name="Vrstva 1" xmlns="http://www.w3.org/2000/svg" viewBox="0 0 94.42 98.68"><defs><style>.cls-1{fill:#d1d4fd;}.cls-2{fill:#333;}.cls-3{fill:#999;}.cls-4{fill:#fff;}.cls-5{fill:#9ae0e3;}.cls-6{fill:#58659a;}.cls-7{fill:#828bb3;}.cls-8{opacity:0.46;}</style></defs><title>Pojistne 3</title><path class="cls-1" d="M73.55,20.91v73a4.49,4.49,0,0,1-4.5,4.5H8.26a4.49,4.49,0,0,1-4.5-4.5v-73a4.49,4.49,0,0,1,4.5-4.5H9.77V95H67.54V16.41h1.51A4.49,4.49,0,0,1,73.55,20.91Z" transform="translate(-3.19 -0.32)"/><polygon class="cls-2" points="52.47 21.51 18.46 21.51 18.46 16.09 19.61 16.09 19.61 20.37 51.33 20.37 51.33 16.09 52.47 16.09 52.47 21.51"/><path class="cls-3" d="M10.4,95V16.78h-2V95.62a1.31,1.31,0,0,0,1.31,1.31h55.8V95Z" transform="translate(-3.19 -0.32)"/><path class="cls-2" d="M69.05,99H8.26a5.08,5.08,0,0,1-5.07-5.07v-73a5.08,5.08,0,0,1,5.07-5.07H9.77V17H8.26a3.94,3.94,0,0,0-3.93,3.93v73a3.94,3.94,0,0,0,3.93,3.93H69.05A3.94,3.94,0,0,0,73,93.93v-73A3.94,3.94,0,0,0,69.05,17H67.54V15.84h1.51a5.08,5.08,0,0,1,5.07,5.07v73A5.08,5.08,0,0,1,69.05,99Z" transform="translate(-3.19 -0.32)"/><polygon class="cls-4" points="64.35 16.09 64.35 94.66 6.58 94.66 6.58 16.09 19.04 16.09 51.9 16.09 64.35 16.09"/><path class="cls-2" d="M68.11,95.55H9.2V15.84H68.11ZM10.34,94.41H67V17H10.34Z" transform="translate(-3.19 -0.32)"/><rect class="cls-2" x="16.98" y="39.33" width="22.94" height="1.14"/><rect class="cls-2" x="15.84" y="45.47" width="24.09" height="1.14"/><rect class="cls-2" x="20.75" y="51.62" width="19.18" height="1.14"/><rect class="cls-2" x="15.84" y="57.77" width="24.09" height="1.14"/><rect class="cls-3" x="19.57" y="17.43" width="31.79" height="5.38" rx="0.5" ry="0.5"/><path class="cls-5" d="M55.08,12.34v8.84H22.22V12.34h7.57c0-1.65,0-1.65,0-2.56a8.89,8.89,0,0,1,17.78,0c0,1.55,0,0,0,2.56ZM34.17,10.85h8.94c0-4.73-2.47-6.37-4.66-6.37S34.17,6.12,34.17,10.85Z" transform="translate(-3.19 -0.32)"/><path class="cls-2" d="M55.66,21.75h-34v-10h7.56c0-.55,0-.85,0-1.11s0-.49,0-.88a9.46,9.46,0,0,1,18.92,0c0,.7,0,.79,0,.89s0,.21,0,1.1h7.57ZM22.79,20.61H54.51v-7.7H47v-.57c0-1.47,0-1.61,0-1.73s0-.17,0-.83a8.32,8.32,0,1,0-16.63,0v.86c0,.34,0,.75,0,1.7v.57H22.79Z" transform="translate(-3.19 -0.32)"/><path class="cls-2" d="M43.68,11.42H33.6v-.57c0-6.44,3.71-6.95,4.85-6.95,2.41,0,5.23,1.82,5.23,7Zm-8.92-1.14h7.77c-.18-3.84-2.19-5.23-4.08-5.23C36.19,5.05,34.89,6.9,34.76,10.28Z" transform="translate(-3.19 -0.32)"/><path class="cls-6" d="M97,34.69V70.82c0,9.42-19.79,26.53-27,27.59-7.18-1.06-27-18.17-27-27.59V34.69l27-8ZM85.41,55.26a2.94,2.94,0,0,0-4.16-4.16L65.85,66.5l-7-7a2.86,2.86,0,0,0-4.05,0l-.11.1a2.87,2.87,0,0,0,0,4.06l7,7,4.14,4.16L70,70.66Z" transform="translate(-3.19 -0.32)"/><path class="cls-1" d="M85.41,51.1a3,3,0,0,1,0,4.16L70,70.66l-4.16,4.16-4.14-4.16-7-7a2.87,2.87,0,0,1,0-4.06l.11-.1a2.86,2.86,0,0,1,4.05,0l7,7,15.4-15.4A3,3,0,0,1,85.41,51.1Z" transform="translate(-3.19 -0.32)"/><path class="cls-7" d="M89.85,32.47l-.08.28V70.82c0,8.11-11.82,23.07-20.48,27.42,1.4.7-.2,0,.8.17,7.17-1.06,27-18.17,27-27.59V34.69Z" transform="translate(-3.19 -0.32)"/><g class="cls-8"><path class="cls-2" d="M70.08,98.41c-7.18-1.06-27-18.17-27-27.59V34.14l-6.18,4V71.87c0,9.44,18.59,25.63,32.35,26.76A8.44,8.44,0,0,0,71,98.16C70.71,98.25,70.37,98.36,70.08,98.41Z" transform="translate(-3.19 -0.32)"/></g><path class="cls-2" d="M70.08,99H70c-7-1-27.45-18.25-27.45-28.15V34.69a.57.57,0,0,1,.41-.54l27-8a.62.62,0,0,1,.33,0l27,8a.56.56,0,0,1,.41.54V70.82C97.61,80.72,77.13,98,70.16,99ZM43.68,35.12v35.7c0,8.76,19.19,25.84,26.4,27,7.19-1.17,26.39-18.25,26.39-27V35.12L70.08,27.24Z" transform="translate(-3.19 -0.32)"/><path class="cls-2" d="M65.85,75.39h0a.62.62,0,0,1-.41-.16L54.32,64.1a3.45,3.45,0,0,1,0-4.88l.16-.13a3.41,3.41,0,0,1,4.8,0l6.57,6.57,15-15a3.51,3.51,0,0,1,5,0h0a3.55,3.55,0,0,1,0,5L66.25,75.23A.58.58,0,0,1,65.85,75.39Zm-9-16.13a2.29,2.29,0,0,0-1.62.68l-.17.13a2.3,2.3,0,0,0,0,3.22L65.85,74,85,54.86a2.4,2.4,0,0,0,0-3.36,2.36,2.36,0,0,0-3.34,0L66.25,66.91a.58.58,0,0,1-.81,0l-7-7A2.31,2.31,0,0,0,56.86,59.26Z" transform="translate(-3.19 -0.32)"/></svg>